<svg width="24" height="13" viewBox="0 0 24 13" fill="none" xmlns="http://www.w3.org/2000/svg">
<path d="M19.9157 7.45457C19.5277 6.99957 19.6387 6.79714 19.9157 6.39043C19.9207 6.38579 23.1238 2.27593 23.4538 0.882143L23.4558 0.881214C23.6198 0.373286 23.4558 0 22.6628 0H20.0387C19.3707 0 19.0627 0.320357 18.8977 0.678786C18.8977 0.678786 17.5616 3.64836 15.6715 5.57329C15.0615 6.1295 14.7795 6.30779 14.4465 6.30779C14.2825 6.30779 14.0275 6.1295 14.0275 5.62157V0.881214C14.0275 0.272071 13.8405 0 13.2875 0H9.16132C8.7423 0 8.49329 0.284143 8.49329 0.548786C8.49329 1.12636 9.43833 1.25914 9.53633 2.88414V6.40993C9.53633 7.1825 9.38533 7.32457 9.05031 7.32457C8.15828 7.32457 5.99321 4.34293 4.71016 0.930428C4.45115 0.268357 4.19815 0.000928504 3.52512 0.000928504H0.900031C0.151005 0.000928504 0 0.321286 0 0.679714C0 1.313 0.892031 4.46179 4.14814 8.62179C6.31822 11.4614 9.37433 13 12.1544 13C13.8255 13 14.0295 12.6583 14.0295 12.0705C14.0295 9.35721 13.8785 9.10093 14.7155 9.10093C15.1035 9.10093 15.7715 9.27921 17.3316 10.6489C19.1147 12.2729 19.4077 13 20.4057 13H23.0298C23.7778 13 24.1568 12.6583 23.9388 11.9841C23.4398 10.5662 20.0677 7.64957 19.9157 7.45457Z" fill="#537EA8"/>
</svg>
