<svg width="120" height="40" viewBox="0 0 120 40" fill="none" xmlns="http://www.w3.org/2000/svg">
<g clip-path="url(#clip0)">
<path d="M119.66 8.44C119.66 8.13 119.66 7.83 119.66 7.52C119.65 6.85 119.59 6.18 119.47 5.52C119.36 4.86 119.15 4.22 118.85 3.62C118.23 2.42 117.25 1.44 116.05 0.82C115.45 0.52 114.81 0.31 114.14 0.19C113.48 0.08 112.81 0.02 112.14 0.01C111.84 0.01 111.52 0 111.22 0C110.86 0 110.5 0 110.14 0H9.53C9.17 0 8.81 0 8.44 0C8.13 0 7.83 0.01 7.52 0.01C6.85 0.02 6.18 0.08 5.52 0.19C4.86 0.3 4.22 0.51 3.62 0.82C3.02 1.12 2.47 1.52 2 2C1.52 2.47 1.12 3.02 0.82 3.62C0.52 4.22 0.31 4.86 0.19 5.52C0.08 6.18 0.02 6.85 0.01 7.52C0.01 7.83 0 8.14 0 8.44V31.55C0 31.86 0.01 32.16 0.02 32.47C0.03 33.14 0.09 33.81 0.2 34.47C0.31 35.13 0.52 35.78 0.83 36.37C1.13 36.97 1.53 37.51 2.01 37.98C2.48 38.46 3.03 38.86 3.63 39.16C4.23 39.46 4.87 39.68 5.53 39.79C6.19 39.9 6.86 39.96 7.53 39.97C7.83 39.99 8.13 40 8.44 40C8.81 40 9.17 40 9.53 40H110.13C110.49 40 110.85 40 111.21 40C111.51 40 111.83 40 112.13 39.99C112.8 39.98 113.47 39.92 114.13 39.81C114.79 39.7 115.44 39.48 116.04 39.18C116.64 38.88 117.18 38.48 117.66 38C118.14 37.53 118.53 36.98 118.84 36.39C119.14 35.79 119.35 35.15 119.46 34.49C119.57 33.83 119.63 33.16 119.65 32.49C119.65 32.18 119.65 31.88 119.65 31.57C119.66 31.21 119.66 30.85 119.66 30.48V9.54C119.66 9.17 119.66 8.81 119.66 8.44ZM118.79 30.46C118.79 30.82 118.79 31.18 118.78 31.54C118.78 31.87 118.78 32.16 118.78 32.47C118.77 33.09 118.71 33.71 118.61 34.32C118.52 34.9 118.33 35.46 118.07 35.99C117.81 36.5 117.46 36.97 117.05 37.38C116.64 37.79 116.17 38.14 115.65 38.4C115.12 38.67 114.56 38.85 113.98 38.95C113.36 39.05 112.74 39.11 112.11 39.11C111.82 39.12 111.51 39.12 111.21 39.12H110.13H8.44C8.14 39.12 7.84 39.12 7.54 39.11C6.91 39.1 6.29 39.05 5.67 38.95C5.09 38.85 4.54 38.67 4.01 38.4C3.49 38.14 3.02 37.79 2.61 37.38C2.2 36.97 1.85 36.5 1.59 35.98C1.33 35.46 1.14 34.9 1.05 34.32C0.95 33.7 0.89 33.07 0.88 32.44C0.87 32.23 0.87 31.53 0.87 31.53V8.44C0.87 8.44 0.88 7.75 0.88 7.55C0.9 6.92 0.95 6.3 1.05 5.68C1.15 5.1 1.33 4.54 1.6 4.02C1.86 3.5 2.2 3.03 2.62 2.62C3.02 2.21 3.5 1.86 4.01 1.6C4.53 1.34 5.09 1.15 5.66 1.06C6.28 0.96 6.91 0.9 7.54 0.9L8.44 0.89H111.21L112.12 0.9C112.74 0.91 113.36 0.96 113.98 1.06C114.56 1.16 115.12 1.34 115.65 1.61C116.69 2.14 117.53 2.99 118.07 4.03C118.33 4.55 118.51 5.11 118.61 5.68C118.71 6.3 118.77 6.93 118.78 7.57C118.78 7.85 118.78 8.16 118.78 8.46C118.79 8.84 118.79 9.19 118.79 9.55V30.46Z" fill="white"/>
<path d="M24.77 20.3C24.79 18.6 25.68 17.04 27.13 16.15C26.21 14.84 24.73 14.04 23.14 13.99C21.46 13.81 19.83 14.99 18.98 14.99C18.11 14.99 16.79 14 15.37 14.03C13.5 14.09 11.81 15.13 10.9 16.76C8.97 20.11 10.41 25.03 12.26 27.74C13.19 29.07 14.27 30.55 15.69 30.49C17.08 30.43 17.6 29.61 19.27 29.61C20.93 29.61 21.41 30.49 22.86 30.46C24.35 30.44 25.29 29.13 26.18 27.79C26.85 26.85 27.36 25.8 27.7 24.7C25.92 23.95 24.77 22.22 24.77 20.3Z" fill="white"/>
<path d="M22.04 12.21C22.85 11.24 23.25 9.97997 23.15 8.71997C21.91 8.84997 20.76 9.43997 19.94 10.38C19.13 11.3 18.72 12.51 18.8 13.74C20.06 13.75 21.25 13.19 22.04 12.21Z" fill="white"/>
<path d="M42.3 27.14H37.57L36.43 30.5H34.43L38.91 18.08H40.99L45.47 30.5H43.43L42.3 27.14ZM38.06 25.59H41.81L39.96 20.14H39.91L38.06 25.59Z" fill="white"/>
<path d="M55.16 25.97C55.16 28.78 53.65 30.59 51.38 30.59C50.21 30.65 49.1 30.04 48.53 29.01H48.49V33.49H46.63V21.44H48.43V22.95H48.46C49.05 21.93 50.16 21.31 51.34 21.35C53.65 21.35 55.16 23.16 55.16 25.97ZM53.25 25.97C53.25 24.14 52.3 22.93 50.86 22.93C49.44 22.93 48.48 24.16 48.48 25.97C48.48 27.79 49.44 29.02 50.86 29.02C52.3 29.02 53.25 27.82 53.25 25.97Z" fill="white"/>
<path d="M65.12 25.97C65.12 28.78 63.61 30.59 61.34 30.59C60.17 30.65 59.06 30.04 58.49 29.01H58.45V33.49H56.6V21.44H58.4V22.95H58.43C59.02 21.93 60.13 21.31 61.31 21.35C63.61 21.35 65.12 23.16 65.12 25.97ZM63.21 25.97C63.21 24.14 62.26 22.93 60.82 22.93C59.4 22.93 58.44 24.16 58.44 25.97C58.44 27.79 59.4 29.02 60.82 29.02C62.27 29.02 63.21 27.82 63.21 25.97Z" fill="white"/>
<path d="M71.71 27.04C71.85 28.27 73.04 29.08 74.68 29.08C76.25 29.08 77.37 28.27 77.37 27.16C77.37 26.2 76.69 25.62 75.08 25.22L73.47 24.83C71.19 24.28 70.13 23.21 70.13 21.48C70.13 19.34 72 17.87 74.65 17.87C77.27 17.87 79.07 19.34 79.13 21.48H77.25C77.14 20.24 76.11 19.49 74.62 19.49C73.13 19.49 72.1 20.25 72.1 21.35C72.1 22.23 72.75 22.74 74.35 23.14L75.72 23.48C78.27 24.08 79.33 25.11 79.33 26.92C79.33 29.24 77.48 30.7 74.54 30.7C71.79 30.7 69.93 29.28 69.81 27.03L71.71 27.04Z" fill="white"/>
<path d="M83.35 19.3V21.44H85.07V22.91H83.35V27.9C83.35 28.68 83.69 29.04 84.45 29.04C84.65 29.04 84.86 29.02 85.06 29V30.46C84.72 30.52 84.37 30.55 84.03 30.55C82.2 30.55 81.48 29.86 81.48 28.11V22.92H80.16V21.45H81.48V19.3H83.35Z" fill="white"/>
<path d="M86.07 25.97C86.07 23.12 87.75 21.33 90.36 21.33C92.99 21.33 94.65 23.12 94.65 25.97C94.65 28.83 92.99 30.61 90.36 30.61C87.73 30.61 86.07 28.83 86.07 25.97ZM92.76 25.97C92.76 24.02 91.86 22.86 90.36 22.86C88.86 22.86 87.96 24.02 87.96 25.97C87.96 27.93 88.85 29.08 90.36 29.08C91.87 29.08 92.76 27.93 92.76 25.97Z" fill="white"/>
<path d="M96.19 21.44H97.96V22.98H98C98.25 21.99 99.16 21.31 100.18 21.34C100.39 21.34 100.61 21.36 100.82 21.41V23.15C100.55 23.07 100.27 23.03 99.99 23.04C98.96 23 98.08 23.8 98.04 24.84C98.04 24.94 98.04 25.03 98.05 25.13V30.5H96.19V21.44Z" fill="white"/>
<path d="M109.38 27.84C109.13 29.48 107.53 30.61 105.48 30.61C102.85 30.61 101.21 28.85 101.21 26.01C101.21 23.17 102.85 21.33 105.4 21.33C107.9 21.33 109.48 23.05 109.48 25.8V26.44H103.09V26.55C102.98 27.85 103.93 28.99 105.23 29.11C105.33 29.12 105.43 29.12 105.52 29.12C106.42 29.2 107.27 28.69 107.61 27.85L109.38 27.84ZM103.1 25.13H107.63C107.7 23.93 106.78 22.9 105.58 22.84C105.52 22.84 105.47 22.84 105.41 22.84C104.14 22.83 103.11 23.85 103.1 25.12V25.13Z" fill="white"/>
<path d="M36.74 11.25H37.54C38.09 11.32 38.59 10.93 38.66 10.38C38.66 10.35 38.67 10.33 38.67 10.3C38.67 9.74998 38.26 9.38998 37.55 9.38998C36.97 9.30998 36.43 9.70998 36.35 10.3C36.35 10.31 36.35 10.32 36.35 10.33H35.47C35.53 9.29998 36.42 8.50998 37.45 8.56998C37.49 8.56998 37.54 8.57998 37.58 8.57998C38.75 8.57998 39.58 9.23998 39.58 10.18C39.59 10.83 39.13 11.4 38.5 11.54V11.61C39.26 11.64 39.86 12.29 39.83 13.05C39.72 14.15 38.74 14.94 37.64 14.83C37.63 14.83 37.61 14.83 37.6 14.83C36.51 14.98 35.51 14.22 35.37 13.13C35.37 13.11 35.36 13.08 35.36 13.06H36.25C36.3 13.63 36.83 14 37.6 14C38.37 14 38.88 13.59 38.88 13C38.88 12.41 38.4 12.04 37.57 12.04H36.75V11.25H36.74Z" fill="white"/>
<path d="M40.83 13.42C40.83 12.61 41.43 12.14 42.5 12.08L43.72 12.01V11.62C43.72 11.14 43.41 10.88 42.8 10.88C42.3 10.88 41.96 11.06 41.86 11.38H41C41.09 10.61 41.82 10.11 42.84 10.11C43.97 10.11 44.61 10.67 44.61 11.62V14.7H43.75V14.07H43.68C43.39 14.53 42.87 14.8 42.33 14.78C41.58 14.86 40.91 14.31 40.84 13.57C40.83 13.51 40.83 13.47 40.83 13.42ZM43.72 13.04V12.66L42.62 12.73C42 12.77 41.72 12.98 41.72 13.38C41.72 13.79 42.07 14.02 42.55 14.02C43.13 14.08 43.65 13.65 43.71 13.07C43.72 13.06 43.72 13.05 43.72 13.04Z" fill="white"/>
<path d="M46.97 10.94V14.69H46.08V10.19H49.04V10.94H46.97Z" fill="white"/>
<path d="M54.43 12.44C54.43 13.87 53.71 14.77 52.57 14.77C52 14.81 51.46 14.51 51.18 14.01H51.11V16.19H50.22V10.19H51.08V10.93H51.15C51.43 10.41 51.98 10.1 52.56 10.11C53.71 10.12 54.43 11.01 54.43 12.44ZM53.52 12.44C53.52 11.49 53.07 10.91 52.32 10.91C51.57 10.91 51.1 11.5 51.1 12.44C51.1 13.38 51.57 13.97 52.31 13.97C53.07 13.97 53.52 13.4 53.52 12.44Z" fill="white"/>
<path d="M55.61 16.31V15.54C55.71 15.55 55.8 15.56 55.9 15.56C56.29 15.59 56.64 15.32 56.71 14.93L56.78 14.71L55.15 10.19H56.12L57.25 13.77H57.32L58.45 10.19H59.39L57.71 14.88C57.33 15.98 56.9 16.33 55.98 16.33C55.91 16.33 55.7 16.32 55.61 16.31Z" fill="white"/>
<path d="M60.08 13.42H60.96C61.05 13.82 61.42 14.02 61.94 14.02C62.53 14.02 62.9 13.76 62.9 13.35C62.9 12.92 62.57 12.71 61.94 12.71H61.27V12.02H61.93C62.47 12.02 62.74 11.81 62.74 11.44C62.74 11.11 62.48 10.86 61.93 10.86C61.43 10.86 61.07 11.07 61.01 11.43H60.15C60.28 10.58 61.07 9.98998 61.92 10.11C62.99 10.11 63.6 10.59 63.6 11.35C63.61 11.79 63.31 12.17 62.89 12.27V12.34C63.4 12.41 63.78 12.84 63.77 13.35C63.77 14.21 63.04 14.77 61.93 14.77C60.96 14.78 60.16 14.33 60.08 13.42Z" fill="white"/>
<path d="M65.07 14.7V10.2H65.95V13.3H66.02L68.1 10.2H68.98V14.7H68.1V11.59H68.03L65.95 14.7H65.07Z" fill="white"/>
<path d="M73.83 10.94H72.41V14.69H71.52V10.94H70.1V10.19H73.83V10.94Z" fill="white"/>
<path d="M78.61 13.48C78.36 14.33 77.54 14.88 76.66 14.78C75.53 14.81 74.59 13.92 74.56 12.79C74.56 12.68 74.56 12.57 74.58 12.46C74.43 11.32 75.23 10.28 76.36 10.13C76.46 10.12 76.56 10.11 76.65 10.11C77.9 10.11 78.66 10.97 78.66 12.38V12.69H75.48V12.74C75.42 13.39 75.91 13.97 76.56 14.03C76.6 14.03 76.64 14.03 76.68 14.03C77.11 14.08 77.54 13.87 77.75 13.48H78.61ZM75.49 12.03H77.76C77.8 11.43 77.36 10.91 76.76 10.87C76.73 10.87 76.69 10.87 76.66 10.87C76.02 10.86 75.5 11.37 75.49 12C75.49 12.01 75.49 12.02 75.49 12.03Z" fill="white"/>
<path d="M82.38 10.19H84.41C85.29 10.19 85.81 10.64 85.81 11.34C85.81 11.8 85.5 12.19 85.05 12.29V12.36C85.6 12.39 86.02 12.85 86.01 13.4C86.01 14.19 85.42 14.7 84.43 14.7H82.38V10.19ZM83.26 10.88V12.05H84.14C84.68 12.05 84.93 11.84 84.93 11.46C84.93 11.11 84.71 10.88 84.23 10.88H83.26ZM83.26 12.7V14.02H84.31C84.84 14.02 85.12 13.79 85.12 13.36C85.12 12.91 84.8 12.7 84.2 12.7H83.26Z" fill="white"/>
</g>
<defs>
<clipPath id="clip0">
<rect width="119.66" height="40" fill="white"/>
</clipPath>
</defs>
</svg>
