<svg width="125" height="34" viewBox="0 0 125 34" fill="none" xmlns="http://www.w3.org/2000/svg">
<path fill-rule="evenodd" clip-rule="evenodd" d="M11.5263 0.00580194C12.6399 -0.000859822 15.9493 -0.298927 17.3512 4.43221C18.2954 7.61916 19.7996 12.8395 21.8637 20.0933H22.7043C24.9179 12.4459 26.4385 7.22549 27.2661 4.43221C28.6825 -0.34821 32.2236 0.00589561 33.64 0.00589561L44.568 0.00590924V33.9999H33.4299V13.9667H32.683L26.474 33.9999H18.094L11.885 13.9518H11.1381V33.9999H0V0.00590924L11.5263 0.00580194ZM60.5622 0.00590924V20.0541H61.4507L69.0034 3.56861C70.4695 0.287956 73.5942 0.00590924 73.5942 0.00590924H84.3726V34H73.0018V13.9518H72.1133L64.7087 30.4373C63.2426 33.7031 59.9698 34 59.9698 34H49.1914V0.00590924H60.5622ZM123.675 16.1601C122.089 20.6548 117.108 23.8737 111.593 23.8737H99.6688V34H88.8559V16.1601H123.675Z" fill="#0F754E"/>
<path fill-rule="evenodd" clip-rule="evenodd" d="M112.115 0.00585938H88.2888C88.8558 7.5741 95.3734 14.053 102.12 14.053H124.426C125.713 7.76291 121.282 0.00585938 112.115 0.00585938Z" fill="url(#paint0_linear)"/>
<defs>
<linearGradient id="paint0_linear" x1="124.645" y1="8.84212" x2="88.2888" y2="8.84212" gradientUnits="userSpaceOnUse">
<stop stop-color="#1F5CD7"/>
<stop offset="1" stop-color="#02AEFF"/>
</linearGradient>
</defs>
</svg>
