<svg width="14" height="24" viewBox="0 0 14 24" fill="none" xmlns="http://www.w3.org/2000/svg">
<path d="M7.03683 12.4039C10.4535 12.4039 13.2388 9.61857 13.2388 6.20193C13.2388 2.7853 10.4535 0 7.03683 0C3.62019 0 0.834901 2.7853 0.834901 6.20193C0.797763 9.61857 3.58306 12.4039 7.03683 12.4039ZM7.03683 3.60232C8.44805 3.60232 9.5993 4.75358 9.5993 6.1648C9.5993 7.57602 8.44805 8.72727 7.03683 8.72727C5.62561 8.72727 4.47435 7.57602 4.47435 6.1648C4.43722 4.75358 5.58847 3.60232 7.03683 3.60232Z" fill="#E8762F"/>
<path d="M9.52513 17.4544C10.7878 17.1573 12.0133 16.6745 13.1274 15.9689C13.9816 15.449 14.2416 14.2978 13.6845 13.4436C13.1646 12.5894 12.0133 12.3295 11.1592 12.8865C8.63383 14.4834 5.32861 14.4834 2.80327 12.8865C1.94911 12.3666 0.834995 12.5894 0.277935 13.4436C-0.241988 14.2978 -0.0191638 15.4119 0.834995 15.9689C1.94911 16.6745 3.17464 17.1573 4.43731 17.4544L0.983542 20.9082C0.277933 21.6138 0.277933 22.7651 0.983542 23.4707C1.35492 23.842 1.80056 23.9906 2.28335 23.9906C2.76613 23.9906 3.21178 23.8049 3.58315 23.4707L6.99978 20.054L10.4164 23.4707C11.122 24.1763 12.2733 24.1763 12.9789 23.4707C13.6845 22.7651 13.6845 21.6138 12.9789 20.9082L9.52513 17.4544Z" fill="#E8762F"/>
</svg>
