<svg width="11" height="11" viewBox="0 0 11 11" fill="none" xmlns="http://www.w3.org/2000/svg">
<path d="M5.5 10C7.98528 10 10 7.98528 10 5.5C10 3.01472 7.98528 1 5.5 1C3.01472 1 1 3.01472 1 5.5C1 7.98528 3.01472 10 5.5 10Z" stroke="#6B8BE9"/>
<g clip-path="url(#clip0)">
<path d="M7.05199 6.48718C6.79272 6.26543 6.5296 6.1311 6.27351 6.35252L6.12059 6.48635C6.00871 6.58349 5.80069 7.03738 4.99641 6.11218C4.19229 5.18814 4.67081 5.04427 4.78286 4.94796L4.93661 4.81397C5.19136 4.59205 5.09522 4.31268 4.91149 4.0251L4.80061 3.85091C4.61604 3.56401 4.41505 3.37558 4.15963 3.59717L4.02162 3.71776C3.90873 3.8 3.59319 4.06731 3.51664 4.57513C3.42452 5.18446 3.71512 5.88222 4.38088 6.64781C5.04581 7.41373 5.69684 7.79845 6.31354 7.79175C6.82605 7.78623 7.13557 7.51121 7.23238 7.41122L7.37089 7.29046C7.62564 7.06904 7.46737 6.8436 7.20793 6.62134L7.05199 6.48718Z" fill="#6B8BE9"/>
</g>
<defs>
<clipPath id="clip0">
<rect width="4" height="5" fill="white" transform="translate(3.5 3.5)"/>
</clipPath>
</defs>
</svg>
